<mxfile host="app.diagrams.net" modified="2023-10-24T00:41:30.018Z" agent="Mozilla/5.0 (Windows NT 10.0; Win64; x64) AppleWebKit/537.36 (KHTML, like Gecko) Chrome/107.0.0.0 Safari/537.36" version="22.0.6" etag="8H8khgewPl3Xr4JyM0GK" type="github">
  <diagram name="第 1 页" id="qpFbdnEYljRNQyebzG_M">
    <mxGraphModel>
      <root>
        <mxCell id="0" />
        <mxCell id="1" parent="0" />
      </root>
    </mxGraphModel>
  </diagram>
</mxfile>
